<?xml version="1.0" encoding="utf-8"?>
<!-- Generator: Adobe Illustrator 19.1.0, SVG Export Plug-In . SVG Version: 6.00 Build 0)  -->
<svg version="1.2" baseProfile="tiny" id="Layer_1" xmlns="http://www.w3.org/2000/svg" xmlns:xlink="http://www.w3.org/1999/xlink"
	 x="0px" y="0px" viewBox="-31.9 358.1 518 73" xml:space="preserve">
<path fill="#E31A21" d="M9.2,368.8h-37.1c-2.2,0-4,1.9-4,4.1c0,2.2,1.8,4,4,4h14.4v45.9c0,2.3,1.9,4.2,4.1,4.2
	c2.3,0,4.2-1.9,4.2-4.2v-45.9H9.2c2.1,0,4-1.8,4-4C13.2,370.7,11.3,368.8,9.2,368.8z"/>
<path fill="#E31A21" d="M80.1,418.6h-32v-17h28.3c2.2,0,4-1.9,4-4.1c0-2.2-1.8-4-4-4H48.1v-16.6h31.6c2.2,0,4-1.8,4-4
	c0-2.2-1.8-4.1-4-4.1H44c-2.3,0-4.1,2-4.1,4.2v49.5c0,2.3,1.8,4.2,4.1,4.2h36.1c2.2,0,4-1.9,4-4.1C84.1,420.4,82.3,418.6,80.1,418.6
	z"/>
<path fill="#E31A21" d="M122.5,396.5v-19.6h17.7c8.1,0,12.8,3.5,12.8,9.6s-5.1,10-13,10H122.5z M147.7,403.1
	c8.6-2.3,13.5-8.5,13.5-16.9c0-4.3-1.7-8.5-4.6-11.4c-3.7-3.9-9.4-6-16.1-6h-22.1c-2.3,0-4.2,2-4.2,4.2v49.8c0,2.3,1.9,4.2,4.2,4.2
	c2.2,0,4.1-1.9,4.1-4.2v-18.2h15.9l15.3,20.4c1.2,1.7,2.5,2,3.5,2c2.2,0,4.2-2,4.2-4.3c0-0.9-0.4-1.9-1.1-2.7L147.7,403.1z"/>
<path fill="#E31A21" d="M196.9,368.5c-2.2,0-4.1,1.9-4.1,4.2v50.1c0,2.3,1.9,4.2,4.1,4.2c2.3,0,4.1-1.9,4.1-4.2v-50.1
	C201,370.4,199.2,368.5,196.9,368.5z"/>
<path fill="#E31A21" d="M255.2,418.6h-13.4v-41.7h13.4c12.4,0,21.4,8.9,21.4,21C276.6,410.1,267.8,418.6,255.2,418.6z M255.2,368.8
	h-17.5c-2.3,0-4.2,2-4.2,4.2v49.5c0,2.3,1.9,4.2,4.2,4.2h17.5c17.3,0,29.9-12.2,29.9-29.1C285.1,380.9,272.5,368.8,255.2,368.8z"/>
<path fill="#E31A21" d="M315.5,368.5c-2.3,0-4.2,1.9-4.2,4.2v50.1c0,2.3,1.9,4.2,4.2,4.2c2.2,0,4.1-1.9,4.1-4.2v-50.1
	C319.6,370.5,317.7,368.5,315.5,368.5z"/>
<path fill="#E31A21" d="M482.1,368.5c-2.3,0-4.1,1.8-4.1,4.2v38.5l-31-40.6c-1.3-1.7-2.7-2-3.7-2h-0.6c-2.2,0-4.1,1.9-4.1,4.2v50.1
	c0,2.3,1.7,4.1,4,4.1s4.1-1.8,4.1-4.1v-39.6l31.7,41.5c0.4,0.5,1.7,2.1,3.7,2.1h0.3c2.1,0,3.7-1.7,3.7-3.9v-50.3
	C486.1,370.3,484.4,368.5,482.1,368.5z"/>
<path fill="#E31A21" d="M401.9,385.1c2.3,3.8,3.7,8.2,3.7,13c0,13.7-11.2,24.9-24.9,24.9c-13.7,0-24.9-11.2-24.9-24.9
	c0-4.8,1.4-9.2,3.7-13l-7.3-4.6c-3.1,5.1-4.9,11-4.9,17.3c0,18.4,15,33.3,33.4,33.3s33.4-14.9,33.4-33.3c0-6.3-1.8-12.2-4.8-17.3
	L401.9,385.1L401.9,385.1z"/>
<path fill="#8ED2D0" d="M380.8,358.1h-0.1h-0.1c-8.4,3.3-16.2,7.9-23,13.7l7.2,4.5c1.8-1.5,3.8-2.8,6-3.7c1.6-0.7,3.4,0.3,3.8,2
	c1.4,7.2,3.7,24.6,4.1,26.3h4c0.4-1.7,2.7-19.1,4.1-26.3c0.4-1.7,2.2-2.7,3.9-2c2.1,0.9,4.1,2.2,5.9,3.7l7.2-4.5
	C397,366,389.2,361.4,380.8,358.1z"/>
<title>Teridion Logo</title>
</svg>
